<svg width="116" height="12" viewBox="0 0 116 12" fill="none" xmlns="http://www.w3.org/2000/svg">
<path d="M3.65752 0.956872C4.10552 0.956872 4.51752 1.07287 4.89352 1.30487C5.26952 1.52887 5.56952 1.83687 5.79352 2.22887C6.01752 2.61287 6.12952 3.04887 6.12952 3.53687C6.12952 4.01687 6.01752 4.45687 5.79352 4.85687C5.56952 5.24887 5.26952 5.56087 4.89352 5.79287C4.51752 6.02487 4.10552 6.14087 3.65752 6.14087H1.53352V9.35687H0.237523V0.956872H3.65752ZM3.63352 4.89287C3.84952 4.89287 4.04552 4.83287 4.22152 4.71287C4.39752 4.58487 4.53752 4.42087 4.64152 4.22087C4.75352 4.01287 4.80952 3.78487 4.80952 3.53687C4.80952 3.16087 4.69352 2.84487 4.46152 2.58887C4.22952 2.33287 3.95352 2.20487 3.63352 2.20487H1.53352V4.89287H3.63352ZM11.059 4.38887C10.979 4.34887 10.879 4.31687 10.759 4.29287C10.647 4.26087 10.527 4.24487 10.399 4.24487C10.143 4.24487 9.89099 4.31287 9.64299 4.44887C9.39499 4.57687 9.18699 4.76487 9.01899 5.01287C8.85899 5.25287 8.77899 5.54087 8.77899 5.87687V9.35687H7.53099V3.05687H8.77899V4.24487C8.95499 3.86087 9.21899 3.54487 9.57099 3.29687C9.93099 3.04887 10.307 2.92487 10.699 2.92487C10.995 2.92487 11.223 2.96487 11.383 3.04487L11.059 4.38887ZM18.1373 6.20087C18.1373 6.84087 17.9933 7.40887 17.7053 7.90487C17.4253 8.39287 17.0413 8.77687 16.5533 9.05687C16.0733 9.33687 15.5333 9.47687 14.9333 9.47687C14.3333 9.47687 13.7893 9.33687 13.3013 9.05687C12.8133 8.77687 12.4253 8.39287 12.1373 7.90487C11.8573 7.40887 11.7173 6.84087 11.7173 6.20087C11.7173 5.56087 11.8573 4.99687 12.1373 4.50887C12.4253 4.01287 12.8133 3.62487 13.3013 3.34487C13.7893 3.06487 14.3333 2.92487 14.9333 2.92487C15.5333 2.92487 16.0733 3.06487 16.5533 3.34487C17.0413 3.62487 17.4253 4.01287 17.7053 4.50887C17.9933 4.99687 18.1373 5.56087 18.1373 6.20087ZM16.8773 6.20087C16.8853 5.77687 16.8013 5.40487 16.6253 5.08487C16.4573 4.75687 16.2253 4.50487 15.9293 4.32887C15.6333 4.14487 15.3013 4.05287 14.9333 4.05287C14.5653 4.05287 14.2293 4.14487 13.9253 4.32887C13.6293 4.50487 13.3933 4.75687 13.2173 5.08487C13.0493 5.40487 12.9693 5.77687 12.9773 6.20087C12.9693 6.61687 13.0493 6.98887 13.2173 7.31687C13.3933 7.63687 13.6293 7.88887 13.9253 8.07287C14.2293 8.25687 14.5653 8.34887 14.9333 8.34887C15.3013 8.34887 15.6333 8.25687 15.9293 8.07287C16.2253 7.88887 16.4573 7.63687 16.6253 7.31687C16.8013 6.98887 16.8853 6.61687 16.8773 6.20087ZM25.3881 0.476872V9.35687H24.1521V8.46887C23.9681 8.71687 23.6961 8.94887 23.3361 9.16487C22.9761 9.37287 22.5681 9.47687 22.1121 9.47687C21.5441 9.47687 21.0321 9.33687 20.5761 9.05687C20.1201 8.77687 19.7601 8.38887 19.4961 7.89287C19.2321 7.39687 19.1001 6.83287 19.1001 6.20087C19.1001 5.56087 19.2321 4.99687 19.4961 4.50887C19.7601 4.01287 20.1161 3.62487 20.5641 3.34487C21.0121 3.06487 21.5161 2.92487 22.0761 2.92487C22.5241 2.92487 22.9281 3.01687 23.2881 3.20087C23.6561 3.38487 23.9441 3.60087 24.1521 3.84887V0.476872H25.3881ZM22.2801 8.40887C22.6641 8.40887 23.0001 8.31287 23.2881 8.12087C23.5761 7.92887 23.8001 7.66487 23.9601 7.32887C24.1201 6.99287 24.2001 6.61687 24.2001 6.20087C24.2001 5.77687 24.1201 5.40087 23.9601 5.07287C23.8001 4.73687 23.5761 4.47287 23.2881 4.28087C23.0001 4.08887 22.6641 3.99287 22.2801 3.99287C21.9041 3.99287 21.5721 4.08887 21.2841 4.28087C20.9961 4.47287 20.7681 4.73687 20.6001 5.07287C20.4401 5.40087 20.3601 5.77687 20.3601 6.20087C20.3601 6.61687 20.4401 6.99287 20.6001 7.32887C20.7681 7.66487 20.9961 7.92887 21.2841 8.12087C21.5721 8.31287 21.9041 8.40887 22.2801 8.40887ZM31.5731 6.84887V3.05687H32.8091V9.35687H31.5731V8.34887C31.3891 8.64487 31.1171 8.90887 30.7571 9.14087C30.4051 9.36487 29.9811 9.47687 29.4851 9.47687C28.8291 9.47687 28.2971 9.25287 27.8891 8.80487C27.4811 8.35687 27.2771 7.73687 27.2771 6.94487V3.05687H28.5131V6.60887C28.5131 6.92887 28.5611 7.22487 28.6571 7.49687C28.7611 7.76887 28.9211 7.98887 29.1371 8.15687C29.3611 8.31687 29.6451 8.39687 29.9891 8.39687C30.4211 8.39687 30.7931 8.26087 31.1051 7.98887C31.4171 7.71687 31.5731 7.33687 31.5731 6.84887ZM35.3347 6.20087C35.3347 6.61687 35.4267 6.98887 35.6107 7.31687C35.8027 7.63687 36.0507 7.89287 36.3547 8.08487C36.6667 8.26887 36.9987 8.36087 37.3507 8.36087C37.7507 8.36087 38.0987 8.25687 38.3947 8.04887C38.6907 7.84087 38.9307 7.62487 39.1147 7.40087L39.7987 8.24087C39.6467 8.45687 39.4387 8.66087 39.1747 8.85287C38.9107 9.03687 38.6107 9.18887 38.2747 9.30887C37.9387 9.42087 37.5867 9.47687 37.2187 9.47687C36.6427 9.47687 36.1227 9.33287 35.6587 9.04487C35.1947 8.75687 34.8267 8.36487 34.5547 7.86887C34.2907 7.37287 34.1587 6.81687 34.1587 6.20087C34.1587 5.57687 34.2907 5.02087 34.5547 4.53287C34.8267 4.03687 35.1947 3.64487 35.6587 3.35687C36.1227 3.06887 36.6427 2.92487 37.2187 2.92487C37.8027 2.92487 38.3227 3.04487 38.7787 3.28487C39.2347 3.51687 39.5747 3.82087 39.7987 4.19687L39.1147 5.03687C38.9307 4.76487 38.6667 4.53287 38.3227 4.34087C37.9867 4.14087 37.6587 4.04087 37.3387 4.04087C36.9627 4.04087 36.6227 4.13687 36.3187 4.32887C36.0147 4.51287 35.7747 4.76887 35.5987 5.09687C35.4227 5.41687 35.3347 5.78487 35.3347 6.20087ZM42.9806 9.35687H41.7446V4.25687H40.4366V3.05687H41.7446V1.44887H42.9806V3.05687H44.4446V4.25687H42.9806V9.35687ZM52.5333 0.956872C53.1813 0.956872 53.7493 1.06887 54.2373 1.29287C54.7333 1.50887 55.1453 1.81287 55.4733 2.20487C55.8013 2.58887 56.0493 3.03687 56.2173 3.54887C56.3853 4.05287 56.4693 4.58887 56.4693 5.15687C56.4693 5.92487 56.3213 6.62887 56.0253 7.26887C55.7293 7.90087 55.2893 8.40887 54.7053 8.79287C54.1213 9.16887 53.3973 9.35687 52.5333 9.35687H49.2453V0.956872H52.5333ZM52.4733 8.10887C53.1053 8.10887 53.6173 7.97687 54.0093 7.71287C54.4013 7.44087 54.6893 7.08087 54.8733 6.63287C55.0573 6.18487 55.1493 5.69287 55.1493 5.15687C55.1493 4.62887 55.0573 4.14087 54.8733 3.69287C54.6893 3.24487 54.4013 2.88487 54.0093 2.61287C53.6173 2.34087 53.1053 2.20487 52.4733 2.20487H50.5413V8.10887H52.4733ZM63.7779 3.05687V9.35687H62.5299V8.38487C62.3379 8.64887 62.0539 8.89687 61.6779 9.12887C61.3019 9.36087 60.8659 9.47687 60.3699 9.47687C59.8419 9.47687 59.3579 9.33687 58.9179 9.05687C58.4859 8.77687 58.1419 8.38887 57.8859 7.89287C57.6299 7.39687 57.5019 6.82887 57.5019 6.18887C57.5019 5.54887 57.6339 4.98487 57.8979 4.49687C58.1619 4.00087 58.5259 3.61687 58.9899 3.34487C59.4539 3.06487 59.9819 2.92487 60.5739 2.92487C61.0139 2.92487 61.3979 3.02087 61.7259 3.21287C62.0619 3.40487 62.3299 3.62887 62.5299 3.88487V3.05687H63.7779ZM60.6579 8.33687C61.0419 8.33687 61.3779 8.24487 61.6659 8.06087C61.9539 7.86887 62.1779 7.61287 62.3379 7.29287C62.4979 6.96487 62.5779 6.59687 62.5779 6.18887C62.5779 5.78887 62.4979 5.42887 62.3379 5.10887C62.1779 4.78887 61.9539 4.53687 61.6659 4.35287C61.3779 4.16087 61.0419 4.06487 60.6579 4.06487C60.2899 4.06487 59.9619 4.15687 59.6739 4.34087C59.3859 4.52487 59.1619 4.77687 59.0019 5.09687C58.8419 5.41687 58.7619 5.78087 58.7619 6.18887C58.7619 6.59687 58.8419 6.96487 59.0019 7.29287C59.1619 7.61287 59.3859 7.86887 59.6739 8.06087C59.9619 8.24487 60.2899 8.33687 60.6579 8.33687ZM67.5196 9.35687H66.2836V4.25687H64.9756V3.05687H66.2836V1.44887H67.5196V3.05687H68.9836V4.25687H67.5196V9.35687ZM75.9185 3.05687V9.35687H74.6705V8.38487C74.4785 8.64887 74.1945 8.89687 73.8185 9.12887C73.4425 9.36087 73.0065 9.47687 72.5105 9.47687C71.9825 9.47687 71.4985 9.33687 71.0585 9.05687C70.6265 8.77687 70.2825 8.38887 70.0265 7.89287C69.7705 7.39687 69.6425 6.82887 69.6425 6.18887C69.6425 5.54887 69.7745 4.98487 70.0385 4.49687C70.3025 4.00087 70.6665 3.61687 71.1305 3.34487C71.5945 3.06487 72.1225 2.92487 72.7145 2.92487C73.1545 2.92487 73.5385 3.02087 73.8665 3.21287C74.2025 3.40487 74.4705 3.62887 74.6705 3.88487V3.05687H75.9185ZM72.7985 8.33687C73.1825 8.33687 73.5185 8.24487 73.8065 8.06087C74.0945 7.86887 74.3185 7.61287 74.4785 7.29287C74.6385 6.96487 74.7185 6.59687 74.7185 6.18887C74.7185 5.78887 74.6385 5.42887 74.4785 5.10887C74.3185 4.78887 74.0945 4.53687 73.8065 4.35287C73.5185 4.16087 73.1825 4.06487 72.7985 4.06487C72.4305 4.06487 72.1025 4.15687 71.8145 4.34087C71.5265 4.52487 71.3025 4.77687 71.1425 5.09687C70.9825 5.41687 70.9025 5.78087 70.9025 6.18887C70.9025 6.59687 70.9825 6.96487 71.1425 7.29287C71.3025 7.61287 71.5265 7.86887 71.8145 8.06087C72.1025 8.24487 72.4305 8.33687 72.7985 8.33687ZM85.0636 0.884872C85.5436 0.884872 85.9876 0.952872 86.3956 1.08887C86.8036 1.22487 87.1636 1.40087 87.4756 1.61687C87.7876 1.83287 88.0316 2.06487 88.2076 2.31287L87.3676 3.18887C87.0476 2.88487 86.6956 2.63687 86.3116 2.44487C85.9276 2.24487 85.5116 2.14487 85.0636 2.14487C84.4956 2.14487 83.9796 2.27687 83.5156 2.54087C83.0596 2.80487 82.6996 3.16487 82.4356 3.62087C82.1716 4.06887 82.0396 4.58087 82.0396 5.15687C82.0396 5.72487 82.1796 6.24087 82.4596 6.70487C82.7396 7.16887 83.1116 7.53687 83.5756 7.80887C84.0476 8.08087 84.5596 8.21687 85.1116 8.21687C85.5116 8.21687 85.8876 8.14087 86.2396 7.98887C86.5916 7.82887 86.8756 7.61287 87.0916 7.34087C87.3156 7.06887 87.4276 6.75687 87.4276 6.40487C87.4276 6.36487 87.4276 6.34087 87.4276 6.33287H85.0396V5.04887H88.7596C88.7756 5.16887 88.7876 5.28887 88.7956 5.40887C88.8116 5.52887 88.8196 5.64887 88.8196 5.76887C88.8196 6.20887 88.7516 6.64087 88.6156 7.06487C88.4876 7.48887 88.2836 7.85687 88.0036 8.16887C87.6836 8.56887 87.2676 8.88887 86.7556 9.12887C86.2516 9.36087 85.6916 9.47687 85.0756 9.47687C84.4676 9.47687 83.8996 9.36887 83.3716 9.15287C82.8436 8.92887 82.3796 8.62087 81.9796 8.22887C81.5796 7.83687 81.2676 7.38087 81.0436 6.86087C80.8276 6.33287 80.7196 5.76487 80.7196 5.15687C80.7196 4.54887 80.8276 3.98887 81.0436 3.47687C81.2676 2.95687 81.5756 2.50487 81.9676 2.12087C82.3676 1.72887 82.8316 1.42487 83.3596 1.20887C83.8876 0.992872 84.4556 0.884872 85.0636 0.884872ZM93.7231 4.38887C93.6431 4.34887 93.5431 4.31687 93.4231 4.29287C93.3111 4.26087 93.1911 4.24487 93.0631 4.24487C92.8071 4.24487 92.5551 4.31287 92.3071 4.44887C92.0591 4.57687 91.8511 4.76487 91.6831 5.01287C91.5231 5.25287 91.4431 5.54087 91.4431 5.87687V9.35687H90.1951V3.05687H91.4431V4.24487C91.6191 3.86087 91.8831 3.54487 92.2351 3.29687C92.5951 3.04887 92.9711 2.92487 93.3631 2.92487C93.6591 2.92487 93.8871 2.96487 94.0471 3.04487L93.7231 4.38887ZM100.633 3.05687V9.35687H99.3854V8.38487C99.1934 8.64887 98.9094 8.89687 98.5334 9.12887C98.1574 9.36087 97.7214 9.47687 97.2254 9.47687C96.6974 9.47687 96.2134 9.33687 95.7734 9.05687C95.3414 8.77687 94.9974 8.38887 94.7414 7.89287C94.4854 7.39687 94.3574 6.82887 94.3574 6.18887C94.3574 5.54887 94.4894 4.98487 94.7534 4.49687C95.0174 4.00087 95.3814 3.61687 95.8454 3.34487C96.3094 3.06487 96.8374 2.92487 97.4294 2.92487C97.8694 2.92487 98.2534 3.02087 98.5814 3.21287C98.9174 3.40487 99.1854 3.62887 99.3854 3.88487V3.05687H100.633ZM97.5134 8.33687C97.8974 8.33687 98.2334 8.24487 98.5214 8.06087C98.8094 7.86887 99.0334 7.61287 99.1934 7.29287C99.3534 6.96487 99.4334 6.59687 99.4334 6.18887C99.4334 5.78887 99.3534 5.42887 99.1934 5.10887C99.0334 4.78887 98.8094 4.53687 98.5214 4.35287C98.2334 4.16087 97.8974 4.06487 97.5134 4.06487C97.1454 4.06487 96.8174 4.15687 96.5294 4.34087C96.2414 4.52487 96.0174 4.77687 95.8574 5.09687C95.6974 5.41687 95.6174 5.78087 95.6174 6.18887C95.6174 6.59687 95.6974 6.96487 95.8574 7.29287C96.0174 7.61287 96.2414 7.86887 96.5294 8.06087C96.8174 8.24487 97.1454 8.33687 97.5134 8.33687ZM105.647 2.94887C106.207 2.94887 106.707 3.08887 107.147 3.36887C107.595 3.64087 107.947 4.02087 108.203 4.50887C108.459 4.99687 108.587 5.56087 108.587 6.20087C108.587 6.83287 108.459 7.39687 108.203 7.89287C107.947 8.38087 107.599 8.76487 107.159 9.04487C106.719 9.32487 106.227 9.46487 105.683 9.46487C105.235 9.46487 104.827 9.36887 104.459 9.17687C104.099 8.98487 103.815 8.76487 103.607 8.51687V11.9969H102.359V3.04487H103.607V3.96887C103.791 3.70487 104.067 3.46887 104.435 3.26087C104.803 3.05287 105.207 2.94887 105.647 2.94887ZM105.479 4.08887C105.103 4.08887 104.767 4.18087 104.471 4.36487C104.183 4.54887 103.955 4.80087 103.787 5.12087C103.627 5.43287 103.547 5.79287 103.547 6.20087C103.547 6.60087 103.627 6.96087 103.787 7.28087C103.955 7.60087 104.183 7.85687 104.471 8.04887C104.767 8.23287 105.103 8.32487 105.479 8.32487C105.855 8.32487 106.187 8.23287 106.475 8.04887C106.763 7.85687 106.987 7.60087 107.147 7.28087C107.315 6.96087 107.399 6.60087 107.399 6.20087C107.399 5.79287 107.315 5.43287 107.147 5.12087C106.987 4.80087 106.763 4.54887 106.475 4.36487C106.187 4.18087 105.855 4.08887 105.479 4.08887ZM113.229 2.92487C113.797 2.92487 114.237 3.04087 114.549 3.27287C114.861 3.50487 115.077 3.81687 115.197 4.20887C115.325 4.60087 115.389 5.03687 115.389 5.51687V9.35687H114.153V5.60087C114.153 5.29687 114.113 5.02487 114.033 4.78487C113.953 4.54487 113.817 4.35687 113.625 4.22087C113.433 4.08487 113.165 4.02887 112.821 4.05287C112.501 4.05287 112.217 4.12087 111.969 4.25687C111.721 4.39287 111.525 4.57287 111.381 4.79687C111.237 5.02087 111.165 5.26887 111.165 5.54087V9.35687H109.929V0.476872H111.165V4.05287C111.357 3.75687 111.637 3.49687 112.005 3.27287C112.373 3.04087 112.781 2.92487 113.229 2.92487Z" fill="#F62369"/>
</svg>
